PathFileType	4	(X/Y/Z)	C:\Users\Basilio\Documents\Thesis Gigler\squatting_fais\c3dfiles\041\SLS_pre_back3\markers_experimental.trc
DataRate	CameraRate	NumFrames	NumMarkers	Units	OrigDataRate	OrigDataStartFrame	OrigNumFrames
200.000000	200.000000	4	62	mm	200.000000	372	1490
Frame#	Time	FHD			LBHD			RBHD			C7			T10			CLAV			LSHO			LUUPA			LMUPA			LDUPA			LLEP			LMEP			LRAD			LUL			LRFIN			RSHO			RUPA1			RMUPA			RDUPA			RLEP			RMEP			RRAD			RUL			RUFIN			LASI			RASI			USACR			LSACR			RSACR			LTHI1			LTHI2			LTHI3			LTHI4			LLFC			LMFC			LTIB1			LTIB2			LTIB3			LTIB4			LLMAL			LMMAL			LHEE			LMT1			LMT2			LMT5			RTHI			RTHI2			RTHI3			RTHI4			RLFC			RMFC			RTIB1			RTIB2			RTIB3			RTIB4			RLMAL			RMMAL			RHEE			RMT1			RMT2			RMT5			*61			
		X1	Y1	Z1	X2	Y2	Z2	X3	Y3	Z3	X4	Y4	Z4	X5	Y5	Z5	X6	Y6	Z6	X7	Y7	Z7	X8	Y8	Z8	X9	Y9	Z9	X10	Y10	Z10	X11	Y11	Z11	X12	Y12	Z12	X13	Y13	Z13	X14	Y14	Z14	X15	Y15	Z15	X16	Y16	Z16	X17	Y17	Z17	X18	Y18	Z18	X19	Y19	Z19	X20	Y20	Z20	X21	Y21	Z21	X22	Y22	Z22	X23	Y23	Z23	X24	Y24	Z24	X25	Y25	Z25	X26	Y26	Z26	X27	Y27	Z27	X28	Y28	Z28	X29	Y29	Z29	X30	Y30	Z30	X31	Y31	Z31	X32	Y32	Z32	X33	Y33	Z33	X34	Y34	Z34	X35	Y35	Z35	X36	Y36	Z36	X37	Y37	Z37	X38	Y38	Z38	X39	Y39	Z39	X40	Y40	Z40	X41	Y41	Z41	X42	Y42	Z42	X43	Y43	Z43	X44	Y44	Z44	X45	Y45	Z45	X46	Y46	Z46	X47	Y47	Z47	X48	Y48	Z48	X49	Y49	Z49	X50	Y50	Z50	X51	Y51	Z51	X52	Y52	Z52	X53	Y53	Z53	X54	Y54	Z54	X55	Y55	Z55	X56	Y56	Z56	X57	Y57	Z57	X58	Y58	Z58	X59	Y59	Z59	X60	Y60	Z60	X61	Y61	Z61	X62	Y62	Z62	

373	1.86	-126.7206802368164	1760.679931640625	-1184.342163085938	-294.6162109375001	1677.109008789063	-1262.402465820313	-280.8234252929688	1687.775024414063	-1110.490966796875	-330.4635009765626	1542.03564453125	-1184.563842773438	-392.4839477539064	1247.3271484375	-1122.787475585938	-175.0500183105469	1477.452392578125	-1179.282958984375	-262.0754089355469	1535.986206054688	-1322.225463867188	-176.9472198486328	1504.720825195313	-1463.984619140625	-132.6108703613282	1525.203735351563	-1456.293334960938	-126.8607406616211	1501.141479492188	-1512.6767578125	-83.74796295166017	1497.423583984375	-1536.64599609375	-36.96366500854493	1434.62548828125	-1500.208129882813	188.1385345458985	1542.3955078125	-1583.543823242188	160.7103271484375	1534.799194335938	-1651.479736328125	240.8101196289063	1591.5751953125	-1609.260375976563	-247.8071594238282	1574.168579101563	-1060.702026367188	-116.9864578247071	1584.890869140625	-926.5140380859377	-96.41606903076175	1609.656005859375	-965.2677001953127	-51.41080856323244	1610.322021484375	-925.6873168945315	-6.45827627182007	1618.08837890625	-922.3389282226565	22.07143020629883	1538.6767578125	-940.2492675781252	260.7231140136719	1648.108642578125	-968.1489868164065	252.4165954589844	1660.471435546875	-894.4461669921877	332.8579711914063	1683.991455078125	-969.5146484375002	-241.0207977294922	1022.706298828125	-1182.277221679688	-280.8647155761719	1049.41357421875	-961.9792480468752	-417.8575439453126	1143.4794921875	-1109.566162109375	-433.1651916503907	1117.57275390625	-1135.814697265625	-443.5305175781251	1123.744384765625	-1082.390014648438	-351.7018127441407	829.6421508789065	-1249.57177734375	-305.9302368164063	757.8941650390626	-1242.1552734375	-259.9022827148438	768.136169433594	-1230.894409179688	-327.0700378417969	702.0891113281251	-1226.455932617188	-292.3568420410157	530.5676269531251	-1196.5576171875	-280.0475158691407	519.9111938476564	-1079.781860351563	-279.8928833007813	341.3750000000001	-1129.602661132813	-335.7664184570313	300.2731018066407	-1186.561767578125	-297.7396240234376	293.6589355468751	-1162.460571289063	-306.6220703125001	220.1350402832032	-1122.712646484375	-378.1157836914063	123.3723449707032	-1152.578491210938	-338.6940307617188	146.0965881347657	-1074.76025390625	-443.4811401367189	112.6898651123047	-1105.79052734375	-238.7696075439454	74.7787322998047	-1063.181396484375	-227.8087463378907	59.1848831176758	-1104.548583984375	-273.7847595214844	32.48309326171876	-1157.205322265625	-472.7044067382814	834.467468261719	-876.8318481445315	-449.8902587890626	774.9576416015627	-857.8779907226565	-417.8815917968751	767.6701660156251	-857.8741455078127	-495.0336303710939	703.1303100585939	-863.040954589844	-537.3376464843751	600.6869506835939	-851.6988525390627	-504.9915771484376	546.1124267578126	-951.2325439453127	-641.6627807617189	470.3760681152345	-853.175231933594	-749.6730957031251	487.7573242187501	-879.5745849609377	-727.0177612304689	451.6085510253907	-859.8156738281252	-744.0049438476564	397.3906860351564	-879.9252929687502	-874.2063598632815	364.2563171386719	-895.5361938476565	-816.922546386719	337.9171142578126	-955.2956542968752	-909.890563964844	387.173065185547	-968.5105590820315	-820.3179321289065	195.9912261962891	-921.1817626953127	-836.1665649414065	198.5780792236329	-871.4464111328127	-893.5020751953127	226.7688446044922	-851.2690429687502	-4217.331542968751	853.211364746094	-3944.694335937501	
374	1.865	-126.3607864379883	1760.383422851563	-1184.881103515625	-294.1542053222657	1676.875244140625	-1262.89111328125	-280.4468994140626	1687.605102539063	-1111.091064453125	-330.2366638183594	1541.851318359375	-1184.878173828125	-392.9776611328126	1247.363159179688	-1122.886962890625	-174.8170776367188	1477.267578125	-1179.45166015625	-261.8829345703126	1535.688110351563	-1322.41650390625	-176.6548919677735	1504.43603515625	-1464.038940429688	-132.4083099365235	1525.015258789063	-1456.26123046875	-126.4977569580078	1500.864135742188	-1512.72119140625	-83.42141723632814	1497.210205078125	-1536.646240234375	-36.38568496704102	1434.477905273438	-1500.124389648438	188.562240600586	1542.391845703125	-1583.671630859375	161.0344390869141	1534.8017578125	-1651.47509765625	241.2049560546876	1591.7060546875	-1609.36572265625	-247.5416259765626	1574.10986328125	-1061.099853515625	-116.9430313110352	1585.132690429688	-926.7078857421877	-96.4328308105469	1609.79931640625	-965.485046386719	-51.31261062622072	1610.6591796875	-925.8945312500002	-6.479220867156984	1618.381958007813	-922.3660888671877	22.18613243103028	1538.918579101563	-940.2542724609377	260.3122863769532	1648.884399414063	-967.8269653320315	252.3799438476563	1661.080688476563	-894.1453857421877	332.9806213378907	1684.545166015625	-968.9683227539065	-241.1558074951172	1022.632568359375	-1182.011596679688	-281.0558471679688	1049.507934570313	-961.6336669921877	-418.0604553222657	1143.682006835938	-1109.322998046875	-433.3301391601564	1117.658935546875	-1135.55908203125	-443.6094665527345	1123.87890625	-1082.0849609375	-351.9293518066407	829.621032714844	-1249.297729492188	-306.1186523437501	757.9088745117189	-1241.910522460938	-260.1285705566407	768.1253051757815	-1230.673583984375	-327.2807006835938	702.0522460937501	-1226.077514648438	-292.6319885253907	530.5789794921876	-1196.3056640625	-280.1293640136719	519.9503784179689	-1079.504028320313	-279.9223937988282	341.3691406250001	-1129.502563476563	-335.9380187988282	300.2050476074219	-1186.440795898438	-297.8330078125001	293.6954650878907	-1162.304931640625	-306.6177368164063	220.1743774414063	-1122.643188476563	-378.1229858398438	123.4281845092774	-1152.482055664063	-338.7299499511719	146.0012664794922	-1074.665771484375	-443.4751586914064	112.7223358154297	-1105.76513671875	-238.7565155029297	74.67330169677736	-1063.161987304688	-227.7080078125001	59.2848358154297	-1104.556396484375	-273.7685852050782	32.4982032775879	-1157.156616210938	-472.8367614746095	834.6618652343752	-876.4534912109377	-450.381561279297	775.0761718750002	-857.535583496094	-418.0835876464845	767.7770385742189	-857.5357055664065	-495.2557067871095	703.2730102539064	-862.696960449219	-537.5198364257814	600.7595214843751	-851.362487792969	-505.1903686523439	546.2640991210939	-950.8240966796877	-641.9308471679689	470.5018005371095	-852.5897216796877	-749.7661132812501	487.8025207519532	-879.2708129882815	-727.1610717773439	451.5940551757814	-859.445739746094	-744.2081298828126	397.5101318359376	-879.4358520507815	-874.3064575195315	364.2769165039063	-895.1093750000002	-817.2324218750002	337.9313659667969	-954.799987792969	-909.8275146484377	387.129852294922	-967.9397583007815	-820.4409179687502	196.1465911865235	-921.060485839844	-836.3524169921877	198.5967864990235	-871.093444824219	-893.6089477539065	226.787338256836	-850.9846191406252	-4217.270019531251	853.2358398437502	-3944.755371093751	
375	1.87	-125.6248779296875	1759.948852539063	-1185.394775390625	-293.7821655273438	1676.654907226563	-1263.37890625	-279.9429626464844	1687.46533203125	-1111.708862304688	-330.0106506347657	1541.679077148438	-1185.268432617188	-392.9958496093751	1247.407104492188	-1122.744384765625	-174.7433624267578	1476.974243164063	-1179.539794921875	-261.6188354492188	1535.3818359375	-1322.6494140625	-176.2876434326172	1504.144897460938	-1464.062622070313	-131.9707489013672	1524.688720703125	-1456.302368164063	-126.5757522583008	1501.007202148438	-1513.280517578125	-82.88073730468751	1496.742797851563	-1536.283203125	-35.95048141479493	1434.267944335938	-1499.991943359375	188.9389343261719	1542.43994140625	-1583.742309570313	161.3758544921875	1534.738891601563	-1651.483764648438	241.5063476562501	1591.778564453125	-1609.484252929688	-247.2337036132813	1574.102294921875	-1061.4638671875	-116.8306961059571	1585.099243164063	-926.9021606445315	-96.31474304199222	1609.93603515625	-965.7229003906252	-51.19963455200197	1610.936645507813	-926.0659790039065	-6.527377128601076	1618.599609375	-922.4128417968752	22.42289924621582	1539.27587890625	-940.2446899414065	260.9039611816407	1649.2255859375	-967.828796386719	252.1506958007813	1661.517822265625	-893.7866210937502	333.1792907714844	1684.938354492188	-968.4464111328127	-241.2697448730469	1022.571594238281	-1181.784790039063	-281.2837829589844	1049.559814453125	-961.3096313476565	-417.9752197265626	1143.713012695313	-1109.1357421875	-433.3879699707032	1117.72314453125	-1135.299926757813	-443.7694396972657	1123.988159179688	-1081.843994140625	-352.1473999023438	829.5892333984377	-1249.02392578125	-306.2344665527344	757.8718261718751	-1241.653442382813	-260.3852844238282	768.0998535156252	-1230.4375	-327.4484558105469	702.0365600585939	-1225.658325195313	-292.6301574707032	530.5953979492189	-1196.037353515625	-280.2866821289063	520.0063476562501	-1079.249755859375	-280.0032958984376	341.4100646972657	-1129.330932617188	-335.7917175292969	300.3318481445313	-1186.205078125	-297.8623046875001	293.7616577148438	-1162.269897460938	-306.5792541503907	220.1768798828126	-1122.494506835938	-378.0289001464844	123.4715652465821	-1152.380737304688	-338.7410888671876	145.9511108398438	-1074.583129882813	-443.4394531250001	112.6601333618164	-1105.668212890625	-238.6736907958985	74.59725189208986	-1063.057373046875	-227.7545013427735	59.09646224975587	-1104.4677734375	-273.7260131835938	32.51690673828126	-1157.075561523438	-472.983367919922	834.7710571289065	-876.0600585937502	-450.5093994140626	775.2113037109377	-857.2861938476565	-418.2326660156251	767.9606933593751	-857.192321777344	-495.4141540527345	703.3975219726564	-862.4250488281252	-537.7160644531251	600.8530883789064	-851.0417480468752	-505.3631286621095	546.3880615234376	-950.5284423828127	-641.9419555664064	470.6614685058595	-852.1424560546877	-749.8454589843751	487.8695373535157	-879.0501098632815	-727.2666015625001	451.7473754882814	-859.1334228515627	-744.2455444335939	397.5737609863282	-878.996520996094	-874.4865722656252	364.2878417968751	-894.5246582031252	-817.430358886719	337.8994750976563	-954.2924804687502	-910.1541137695315	387.4013671875001	-967.4681396484377	-820.914489746094	195.9193267822266	-920.7103271484377	-836.760925292969	198.3855438232422	-870.277770996094	-893.7218017578127	226.7469940185547	-850.7046508789065	-4217.399414062501	853.2098388671877	-3944.671142578126	
376	1.875	-125.3433074951172	1759.681396484375	-1185.8125	-293.5277404785157	1676.433349609375	-1263.855834960938	-279.7568054199219	1687.276611328125	-1112.0654296875	-329.7948913574219	1541.525390625	-1185.637817382813	-392.9996643066407	1247.386108398438	-1122.6650390625	-174.8691101074219	1476.594848632813	-1179.66943359375	-261.4333190917969	1535.099365234375	-1322.878540039063	-176.0507202148438	1503.84375	-1464.084838867188	-131.7200317382813	1524.420532226563	-1456.334716796875	-125.0213317871094	1500.182373046875	-1512.415893554688	-82.64231872558595	1496.650634765625	-1536.79638671875	-35.58494567871094	1434.0263671875	-1499.925415039063	189.2385864257813	1542.453735351563	-1583.722534179688	161.6683349609375	1534.631469726563	-1651.423828125	241.7049255371094	1591.830078125	-1609.545288085938	-246.9972229003907	1574.0908203125	-1061.793579101563	-116.8656387329102	1585.537841796875	-927.2796020507815	-96.20264434814456	1610.07080078125	-965.924987792969	-51.10878372192384	1611.227905273438	-926.2083740234377	-6.395317077636721	1618.93115234375	-922.5213012695315	22.38531684875489	1539.47509765625	-940.2556762695315	260.5141296386719	1649.79833984375	-967.392028808594	252.1699981689454	1661.898681640625	-893.4865722656252	333.3407897949219	1685.4306640625	-967.9685668945315	-241.3062591552735	1022.562194824219	-1181.579956054688	-281.5520935058594	1049.550903320313	-960.9118652343752	-418.0441284179689	1143.7421875	-1108.91259765625	-433.4260864257814	1117.776123046875	-1135.0986328125	-443.7843322753907	1124.011840820313	-1081.561157226563	-352.3075256347657	829.5830078125002	-1248.78173828125	-306.4546508789063	757.8057250976564	-1241.307983398438	-260.6280822753907	768.059509277344	-1230.180053710938	-327.5859985351563	701.9123535156251	-1225.419555664063	-292.6285705566407	530.6378784179689	-1195.76318359375	-280.4196472167969	519.9283447265626	-1078.947387695313	-280.0361938476563	341.4501953125001	-1129.180786132813	-335.8290100097657	300.3340148925782	-1186.065185546875	-298.0302429199219	293.8187255859376	-1161.963134765625	-306.5679016113282	220.220687866211	-1122.345581054688	-378.0686035156251	123.4283981323242	-1152.323120117188	-338.7379760742188	145.9337005615235	-1074.441162109375	-443.4385681152345	112.6202239990235	-1105.582153320313	-238.6836395263672	74.48746490478517	-1063.040649414063	-227.7785034179688	59.08725357055665	-1104.43310546875	-273.7053527832032	32.55991744995118	-1157.007202148438	-473.1629028320314	834.8795166015627	-875.778015136719	-450.5995178222657	775.2868652343752	-857.0379638671877	-418.4084472656251	768.1355590820315	-856.7916259765627	-495.5166625976564	703.4691162109376	-862.133972167969	-537.7907104492189	600.9115600585939	-850.7452392578127	-505.3860168457032	546.5204467773439	-950.1328735351565	-642.1054687500001	470.590545654297	-852.4336547851565	-750.1171264648439	487.9504394531251	-878.6759033203127	-727.3859863281251	451.8467712402345	-858.7938232421877	-744.4081420898439	397.7078247070314	-878.4927368164065	-874.5758056640627	364.3671875000001	-894.1101074218752	-817.710876464844	338.0441284179688	-953.729187011719	-910.2321777343752	387.5292968750001	-966.9976196289065	-820.9550781250002	195.9953765869141	-920.5505981445315	-836.8801269531252	198.4093017578126	-870.0468750000002	-893.7855224609377	226.743881225586	-850.4566040039065	-4216.889648437501	853.1797485351565	-3944.834472656251	
